<?xml version="1.0" standalone="no"?>
<!DOCTYPE svg PUBLIC "-//W3C//DTD SVG 20010904//EN"
 "http://www.w3.org/TR/2001/REC-SVG-20010904/DTD/svg10.dtd">
<svg version="1.0" xmlns="http://www.w3.org/2000/svg"
 width="748.000000pt" height="748.000000pt" viewBox="0 0 748.000000 748.000000"
 preserveAspectRatio="xMidYMid meet">
<metadata>
Created by potrace 1.11, written by Peter Selinger 2001-2013
</metadata>
<g transform="translate(0.000000,748.000000) scale(0.100000,-0.100000)"
fill="#000000" stroke="none">
<path d="M3375 6408 c-44 -4 -111 -10 -150 -13 -99 -7 -166 -15 -175 -20 -4
-2 -38 -7 -76 -10 -37 -3 -75 -7 -84 -10 -13 -4 -45 -10 -205 -39 -16 -3 -46
-10 -65 -15 -19 -5 -71 -17 -115 -27 -44 -10 -84 -21 -90 -26 -5 -4 -18 -8
-30 -8 -18 0 -81 -19 -125 -37 -19 -8 -40 -13 -62 -15 -10 -1 -18 -5 -18 -9 0
-4 -15 -11 -32 -14 -18 -4 -37 -10 -43 -13 -5 -4 -19 -8 -29 -9 -11 -2 -24 -7
-30 -11 -6 -5 -33 -17 -61 -26 -56 -20 -75 -28 -188 -80 -43 -20 -83 -36 -88
-36 -5 0 -9 -4 -9 -9 0 -5 -13 -12 -30 -16 -17 -4 -30 -11 -30 -16 0 -5 -9 -9
-19 -9 -11 0 -21 -3 -23 -7 -1 -5 -21 -17 -43 -28 -22 -11 -42 -22 -45 -25 -4
-4 -38 -24 -95 -54 -11 -6 -22 -13 -25 -16 -3 -3 -30 -21 -60 -40 -30 -19 -56
-38 -58 -42 -2 -5 -9 -8 -15 -8 -7 0 -24 -11 -39 -25 -15 -14 -30 -25 -33 -25
-6 0 -70 -46 -91 -65 -6 -5 -25 -21 -43 -35 -64 -49 -137 -117 -236 -216 -124
-124 -182 -192 -262 -303 -34 -47 -66 -91 -70 -97 -19 -24 -163 -281 -163
-289 0 -5 -21 -54 -61 -143 -10 -23 -19 -51 -19 -60 0 -10 -4 -22 -9 -28 -7
-8 -27 -71 -35 -114 -2 -8 -6 -22 -9 -30 -3 -8 -9 -32 -12 -54 -3 -21 -7 -41
-9 -45 -4 -6 -8 -28 -25 -151 -11 -77 -11 -391 0 -458 4 -26 10 -69 13 -96 4
-27 9 -53 11 -57 3 -4 7 -24 11 -45 8 -59 51 -203 89 -304 29 -75 104 -239
115 -250 5 -5 43 -74 64 -117 6 -13 14 -23 19 -23 4 0 7 -7 7 -15 0 -8 5 -15
10 -15 6 0 10 -5 10 -11 0 -10 136 -196 196 -268 49 -59 256 -264 324 -321 36
-30 67 -58 68 -62 2 -5 10 -8 18 -8 8 0 14 -4 14 -8 0 -5 30 -30 68 -57 37
-27 69 -52 72 -56 3 -3 10 -8 15 -10 6 -2 55 -34 110 -70 55 -36 116 -75 135
-85 19 -10 43 -25 53 -33 9 -8 17 -10 17 -6 0 4 8 2 18 -6 15 -13 63 -41 102
-60 8 -4 51 -26 96 -48 45 -22 83 -38 86 -36 3 3 11 -1 18 -10 7 -8 20 -15 29
-15 9 0 21 -4 27 -8 5 -5 47 -23 94 -41 47 -18 97 -37 112 -43 15 -5 29 -8 31
-7 2 2 10 -1 18 -8 8 -6 26 -14 39 -17 14 -3 52 -14 85 -26 91 -31 215 -68
250 -74 11 -2 27 -6 35 -9 8 -3 38 -11 65 -16 28 -5 84 -17 125 -26 41 -9 93
-19 115 -21 22 -3 54 -9 70 -14 17 -6 60 -12 97 -14 36 -2 71 -7 76 -10 6 -3
46 -8 89 -11 43 -2 101 -7 128 -11 28 -3 68 -8 90 -10 56 -5 563 -5 600 0 53
8 159 18 210 21 28 1 66 5 85 9 62 11 84 14 118 15 17 1 32 6 32 11 0 11 -138
6 -263 -8 -74 -9 -399 -7 -477 2 -30 4 -93 9 -140 12 -82 5 -99 7 -165 18 -16
3 -52 7 -80 10 -27 3 -61 8 -75 11 -14 3 -43 8 -65 10 -49 7 -65 10 -85 18 -8
3 -34 8 -58 11 -24 3 -47 8 -51 10 -7 4 -34 11 -88 20 -7 1 -16 5 -19 9 -4 4
-17 7 -28 7 -12 0 -55 11 -96 24 -97 30 -159 47 -162 45 -2 -1 -14 4 -28 11
-14 8 -34 15 -45 17 -11 2 -24 8 -29 13 -6 6 -17 10 -25 10 -17 0 -178 63
-188 74 -4 3 -15 6 -25 6 -10 0 -18 5 -18 10 0 6 -7 10 -16 10 -9 0 -37 11
-63 24 -25 13 -73 37 -106 52 -140 67 -505 294 -505 314 0 5 -6 10 -14 12 -38
8 -315 259 -430 388 -71 80 -206 264 -258 350 -80 133 -168 315 -168 346 0 8
-4 14 -9 14 -6 0 -10 8 -10 18 0 9 -9 44 -21 77 -11 33 -22 67 -24 75 -2 8 -6
22 -9 30 -3 8 -8 31 -10 50 -3 19 -7 42 -11 50 -3 8 -7 33 -10 55 -2 22 -7 47
-10 55 -6 19 -19 202 -17 260 1 43 12 219 16 250 9 82 62 304 85 355 5 11 18
45 28 75 41 113 162 350 184 358 4 2 8 8 8 13 0 11 100 155 135 195 6 7 26 31
45 55 39 49 234 247 293 298 57 49 289 223 307 229 8 3 17 8 20 12 10 12 140
90 150 90 5 0 10 3 10 8 0 4 10 12 23 18 12 6 72 36 133 67 62 32 117 57 123
57 6 0 11 5 11 10 0 6 8 10 17 10 10 0 40 11 68 24 86 41 176 76 195 76 10 0
20 4 22 9 2 6 19 13 38 16 19 3 37 9 40 13 3 4 10 7 15 8 20 2 130 35 147 45
10 5 27 9 39 9 11 0 28 4 37 9 9 5 31 11 47 14 17 2 48 9 70 15 22 6 54 13 70
16 17 3 64 13 105 21 41 8 93 17 115 20 66 8 107 15 114 19 3 2 47 7 96 10 50
4 107 11 128 15 49 12 767 12 788 0 9 -4 56 -11 105 -14 49 -3 105 -10 124
-15 19 -5 61 -11 92 -14 31 -2 61 -7 66 -10 5 -3 34 -8 63 -12 30 -3 58 -9 62
-11 8 -5 121 -32 157 -37 34 -6 273 -77 292 -87 10 -5 28 -9 41 -9 13 0 27 -4
33 -8 5 -5 50 -23 99 -41 50 -18 108 -41 130 -51 22 -9 65 -28 95 -41 111 -47
292 -143 420 -223 41 -26 84 -52 95 -59 11 -7 22 -14 25 -17 3 -3 26 -19 52
-35 27 -17 48 -33 48 -37 0 -5 7 -8 15 -8 7 0 18 -6 22 -13 4 -6 26 -25 48
-42 22 -16 45 -34 51 -40 6 -5 31 -26 54 -45 89 -72 290 -280 354 -366 17 -21
33 -41 36 -44 3 -3 22 -27 41 -55 18 -27 38 -54 42 -60 4 -5 14 -19 22 -30 28
-41 28 -2 0 53 -28 54 -150 241 -164 252 -4 3 -18 21 -31 40 -14 19 -36 48
-50 64 -141 163 -266 285 -396 390 -143 115 -172 136 -182 136 -6 0 -12 4 -14
8 -5 12 -153 112 -167 112 -6 0 -11 3 -11 8 0 4 -17 16 -37 27 -21 11 -40 22
-43 25 -9 9 -81 48 -180 97 -52 27 -96 51 -98 56 -2 4 -10 7 -18 7 -7 0 -30 9
-51 19 -21 11 -60 29 -88 41 -27 12 -63 27 -80 35 -16 7 -48 18 -70 25 -22 7
-45 16 -50 21 -6 4 -23 10 -38 13 -15 2 -32 8 -39 13 -7 4 -22 9 -32 10 -11 2
-24 8 -30 13 -7 5 -23 11 -36 13 -14 2 -32 6 -40 10 -8 3 -42 13 -75 22 -33 9
-71 21 -85 26 -14 4 -56 15 -95 24 -38 9 -86 20 -105 26 -19 5 -48 11 -65 13
-16 2 -48 8 -70 14 -22 6 -62 13 -89 17 -27 3 -52 8 -55 10 -3 1 -37 6 -76 10
-38 3 -73 8 -77 11 -8 5 -65 11 -180 18 -43 3 -88 8 -102 12 -35 8 -537 10
-631 2z"/>
<path d="M4190 6041 c0 -9 88 -28 165 -37 22 -3 56 -9 75 -14 19 -5 67 -16
105 -25 112 -26 236 -59 280 -75 11 -4 45 -15 75 -24 30 -10 64 -21 75 -26 27
-11 106 -41 130 -50 46 -17 78 -32 235 -109 181 -90 253 -130 258 -142 2 -5 8
-9 13 -9 12 0 155 -97 189 -127 14 -13 29 -23 35 -23 5 0 27 -16 47 -35 20
-19 39 -35 41 -35 18 0 219 -200 334 -332 47 -54 89 -98 94 -98 5 0 9 -9 9
-20 0 -11 5 -20 10 -20 6 0 10 -7 10 -15 0 -8 5 -15 10 -15 6 0 10 -5 10 -11
0 -6 9 -24 20 -39 43 -60 127 -225 175 -344 19 -49 71 -229 79 -276 3 -19 8
-46 10 -60 10 -60 19 -171 19 -250 3 -284 -73 -564 -221 -822 -35 -60 -60
-105 -83 -145 -12 -21 -25 -40 -29 -43 -4 -3 -20 -25 -35 -50 -29 -46 -295
-317 -373 -380 -24 -19 -49 -40 -55 -46 -20 -17 -196 -144 -202 -144 -3 0 -26
-15 -52 -32 -58 -40 -75 -50 -133 -81 -121 -64 -253 -128 -325 -157 -44 -17
-89 -35 -100 -40 -11 -5 -42 -16 -70 -25 -27 -10 -59 -21 -70 -25 -11 -4 -47
-16 -80 -25 -33 -9 -70 -21 -83 -26 -13 -5 -34 -9 -47 -9 -14 0 -25 -4 -25 -8
0 -5 -6 -9 -12 -9 -19 -1 -69 -11 -108 -23 -19 -5 -47 -10 -62 -10 -16 0 -28
-4 -28 -8 0 -4 -14 -9 -31 -10 -18 -1 -37 -6 -43 -9 -17 -11 -65 -19 -158 -27
-31 -3 -86 -10 -122 -16 -125 -20 -475 -28 -646 -15 -36 2 -99 7 -140 10 -41
3 -102 10 -135 15 -33 5 -96 14 -140 20 -112 16 -226 38 -320 62 -44 11 -99
24 -123 29 -39 8 -293 90 -337 109 -11 4 -56 23 -99 40 -44 18 -87 36 -95 40
-9 5 -65 33 -126 62 -60 29 -133 67 -162 85 -29 18 -55 33 -58 33 -6 0 -204
129 -215 140 -3 3 -39 30 -80 62 -41 31 -88 68 -105 83 -16 14 -55 46 -87 71
-31 24 -58 48 -60 53 -1 4 -34 42 -71 84 -141 156 -284 357 -338 474 -13 29
-30 52 -36 53 -15 0 -17 -16 -3 -25 6 -3 10 -14 10 -25 0 -35 91 -236 169
-374 23 -41 94 -147 117 -175 7 -9 41 -52 75 -96 126 -162 409 -423 579 -534
30 -20 57 -39 58 -43 2 -5 9 -8 17 -8 7 0 18 -6 24 -14 7 -8 26 -22 44 -31 18
-9 61 -34 97 -56 55 -33 310 -162 375 -189 11 -4 36 -15 55 -23 90 -39 307
-115 415 -145 77 -22 160 -44 195 -52 19 -5 53 -13 75 -19 46 -12 162 -31 220
-37 33 -3 90 -12 115 -19 8 -2 131 -15 195 -21 33 -3 101 -9 150 -13 100 -8
646 -5 685 4 14 4 52 9 85 11 33 3 87 10 120 16 33 5 78 12 100 14 51 6 279
51 325 64 19 6 46 12 60 14 14 3 39 9 55 14 17 5 50 15 75 22 66 19 211 67
245 80 17 7 39 16 50 20 257 99 595 275 710 368 6 5 24 17 40 28 17 10 35 23
42 29 18 15 33 26 78 60 169 125 388 355 526 550 95 134 210 359 249 485 7 25
17 49 22 54 4 6 8 22 8 36 0 15 3 30 7 34 4 4 9 19 10 34 2 15 8 41 13 57 23
75 39 265 35 423 -2 89 -6 166 -9 171 -3 5 -8 33 -12 62 -3 30 -9 58 -11 62
-3 5 -7 23 -9 40 -3 18 -8 39 -11 47 -3 8 -7 22 -9 30 -4 21 -25 91 -34 115
-5 11 -22 57 -40 102 -41 106 -195 383 -229 413 -4 3 -32 39 -63 80 -129 171
-345 382 -513 502 -33 23 -62 44 -65 47 -12 14 -158 108 -195 126 -22 11 -42
23 -45 26 -9 12 -111 67 -235 128 -153 75 -229 108 -390 168 -22 9 -49 19 -60
23 -11 4 -47 16 -80 25 -33 10 -69 21 -80 26 -11 4 -31 10 -45 13 -39 8 -113
28 -135 37 -11 4 -36 10 -55 13 -19 3 -66 12 -105 22 -68 16 -98 21 -255 43
-41 6 -102 15 -135 20 -83 14 -285 22 -285 12z"/>
<path d="M2125 5269 c-8 -12 -9 -618 -2 -626 3 -3 46 -6 96 -7 l89 -1 7 40
c19 120 100 301 163 364 62 62 109 74 310 76 l152 2 -3 -1011 c-3 -952 -5
-1044 -27 -1102 -21 -54 -91 -105 -163 -120 -53 -10 -57 -14 -57 -60 0 -43 1
-44 33 -44 32 -1 671 -1 760 0 l47 0 0 44 0 45 -57 16 c-116 33 -158 81 -180
204 -4 20 -7 484 -7 1031 l-1 995 156 -1 c149 0 249 -15 249 -35 0 -5 6 -9 13
-9 24 0 85 -74 120 -145 20 -38 50 -118 68 -177 37 -120 23 -109 134 -109 25
0 53 0 63 0 16 1 17 22 16 314 -1 171 -2 315 -3 319 -2 12 -1969 9 -1976 -3z"/>
<path d="M3544 4299 c-2 -4 -3 -22 -2 -38 2 -27 8 -33 48 -48 95 -35 116 -63
126 -165 8 -83 8 -1541 0 -1592 -12 -73 -35 -107 -90 -131 -28 -12 -59 -25
-68 -28 -13 -5 -17 -16 -16 -42 1 -28 5 -35 22 -35 108 -1 524 -1 569 -1 l57
1 0 38 c0 36 -2 38 -42 49 -24 7 -58 25 -77 40 -54 46 -59 97 -61 523 l-1 368
426 0 425 0 -1 -373 c-1 -485 -6 -510 -123 -554 -47 -17 -51 -21 -54 -55 l-3
-36 88 -1 c98 0 456 0 518 1 40 0 40 0 40 39 0 37 -1 39 -46 50 -63 16 -104
59 -119 123 -10 38 -13 246 -12 817 0 856 1 869 46 917 22 24 116 69 116 56 0
-4 4 -1 8 6 5 7 8 27 7 45 l-2 32 -321 1 -322 0 0 -37 c0 -30 4 -39 23 -45 66
-20 105 -47 128 -87 l24 -42 0 -355 0 -355 -423 0 -424 -1 4 351 c3 340 4 351
26 396 22 46 44 62 120 89 28 11 32 17 32 49 l0 37 -321 0 c-176 0 -322 -3
-325 -7z"/>
</g>
</svg>
